<svg width="35" height="24" viewBox="0 0 35 24" fill="none" xmlns="http://www.w3.org/2000/svg">
<path fill-rule="evenodd" clip-rule="evenodd" d="M1.34615 0.762421C0.6027 0.762421 0 1.33456 0 2.04032C0 2.74608 0.6027 3.31822 1.34615 3.31822H33.6538C34.3972 3.31822 35 2.74608 35 2.04032C35 1.33456 34.3972 0.762421 33.6538 0.762421H1.34615ZM0 12.2635C0 11.5577 0.6027 10.9856 1.34615 10.9856H33.6538C34.3972 10.9856 35 11.5577 35 12.2635C35 12.9693 34.3972 13.5414 33.6538 13.5414H1.34615C0.6027 13.5414 0 12.9693 0 12.2635ZM0 22.4867C0 21.781 0.6027 21.2088 1.34615 21.2088H33.6538C34.3972 21.2088 35 21.781 35 22.4867C35 23.1923 34.3972 23.7646 33.6538 23.7646H1.34615C0.6027 23.7646 0 23.1923 0 22.4867Z" fill="black"/>
</svg>
